<svg width="201" height="201" viewBox="0 0 201 201" fill="none" xmlns="http://www.w3.org/2000/svg">
<path d="M121.414 143.308H85.5207C85.2315 143.349 84.9371 143.293 84.6823 143.151C84.4274 143.008 84.2261 142.786 84.109 142.519L71.4507 129.837C71.0634 129.453 70.783 128.974 70.6372 128.449V123.424C70.6113 122.898 70.7007 122.373 70.8991 121.885C71.0975 121.397 71.4001 120.959 71.7857 120.6C72.1296 120.143 72.593 119.789 73.1249 119.578C73.6569 119.367 74.2368 119.307 74.8007 119.404H84.0372C84.9953 119.5 85.887 119.937 86.5501 120.635C87.2132 121.334 87.6036 122.247 87.6504 123.208C87.6504 124.213 87.459 127.037 87.459 129.047H118.399V124.022C118.492 122.784 119.027 121.62 119.905 120.742C120.783 119.864 121.946 119.33 123.184 119.236H132.038C132.828 119.452 136.058 120.84 136.058 123.855V128.09C136.07 128.404 136.002 128.717 135.86 128.997C135.717 129.278 135.506 129.518 135.244 129.693L122.586 142.351C122.52 142.616 122.369 142.852 122.158 143.024C121.947 143.196 121.686 143.296 121.414 143.308ZM86.43 139.097H120.409L131.846 127.635V124.213L130.841 123.424H123.208C123.104 123.424 123.004 123.463 122.929 123.534C122.853 123.606 122.808 123.703 122.801 123.807V130.985C122.795 131.567 122.561 132.124 122.15 132.535C121.738 132.947 121.182 133.18 120.6 133.187H85.425L84.0132 132.78C83.5529 132.368 83.2699 131.793 83.2236 131.177C83.2236 131.177 83.415 125.745 83.415 123.735H74.7768V127.563L86.43 139.097Z" fill="#FEE856"/>
<path d="M81.213 149.554H77.5758C76.1601 149.484 74.8214 148.888 73.8213 147.884C72.8213 146.879 72.2317 145.538 72.168 144.122V130.052C72.168 129.468 72.3999 128.908 72.8128 128.495C73.2256 128.083 73.7855 127.851 74.3694 127.851C74.9533 127.851 75.5132 128.083 75.926 128.495C76.3389 128.908 76.5708 129.468 76.5708 130.052V144.122C76.5986 144.434 76.7367 144.726 76.9604 144.945C77.1841 145.165 77.4787 145.297 77.7912 145.318H81.3565C81.6665 145.296 81.9581 145.163 82.1778 144.943C82.3976 144.724 82.5307 144.432 82.553 144.122V140.102C82.553 139.512 82.7874 138.946 83.2048 138.528C83.6221 138.111 84.1881 137.877 84.7783 137.877C85.3397 137.952 85.8604 138.211 86.2587 138.614C86.6571 139.016 86.9107 139.54 86.9798 140.102V144.122C86.7352 145.529 86.041 146.819 85.0012 147.799C83.9615 148.778 82.6323 149.394 81.213 149.554Z" fill="#FEE856"/>
<path d="M129.214 149.554H125.816C125.109 149.557 124.408 149.421 123.754 149.153C123.099 148.885 122.504 148.491 122.002 147.994C121.5 147.496 121.101 146.904 120.827 146.252C120.554 145.6 120.411 144.901 120.408 144.194V140.102C120.408 139.518 120.64 138.958 121.053 138.545C121.466 138.132 122.026 137.9 122.61 137.9C123.193 137.9 123.753 138.132 124.166 138.545C124.579 138.958 124.811 139.518 124.811 140.102V144.122C124.839 144.434 124.977 144.726 125.201 144.945C125.424 145.164 125.719 145.297 126.031 145.318H129.453C129.763 145.296 130.055 145.163 130.274 144.943C130.494 144.723 130.627 144.432 130.65 144.122V130.052C130.6 129.47 130.781 128.892 131.153 128.443C131.525 127.993 132.059 127.708 132.64 127.648C133.22 127.589 133.801 127.76 134.257 128.124C134.713 128.489 135.007 129.018 135.076 129.597C135.1 129.748 135.1 129.901 135.076 130.052V144.122C134.921 145.583 134.241 146.938 133.163 147.937C132.086 148.935 130.683 149.51 129.214 149.554Z" fill="#FEE856"/>
<path d="M109.737 133.258C109.155 133.252 108.599 133.018 108.188 132.607C107.776 132.195 107.542 131.639 107.536 131.057V127.228C107.536 126.893 107.536 126.558 107.344 126.223H99.3045C99.0891 126.439 99.0891 126.63 99.0891 127.037V130.842C99.1389 131.423 98.9582 132.001 98.586 132.45C98.2137 132.9 97.6798 133.185 97.0992 133.245C96.5186 133.305 95.9378 133.134 95.482 132.769C95.0262 132.405 94.7318 131.876 94.6623 131.296C94.6386 131.146 94.6386 130.992 94.6623 130.842V127.228C94.6301 126.6 94.7222 125.971 94.9334 125.378C95.1446 124.785 95.4707 124.239 95.893 123.773C96.3153 123.306 96.8256 122.927 97.3946 122.658C97.9635 122.388 98.58 122.234 99.2088 122.203H107.679C108.886 122.294 110.013 122.838 110.834 123.726C111.655 124.614 112.11 125.78 112.106 126.989V131.009C112.035 131.601 111.76 132.15 111.327 132.561C110.895 132.971 110.332 133.218 109.737 133.258Z" fill="#FEE856"/>
<path d="M108.349 126.63C107.763 126.63 107.201 126.399 106.784 125.987C106.367 125.575 106.13 125.015 106.124 124.429V109.354L104.712 108.947L103.707 107.942L102.918 108.54C102.61 108.857 102.198 109.052 101.757 109.087C101.317 109.122 100.879 108.996 100.525 108.732V124.213C100.56 124.507 100.536 124.804 100.455 125.088C100.374 125.372 100.238 125.637 100.053 125.868C99.8686 126.099 99.64 126.291 99.3807 126.432C99.1213 126.573 98.8364 126.662 98.5425 126.692C98.2486 126.722 97.9517 126.694 97.669 126.608C97.3863 126.522 97.1235 126.381 96.896 126.192C96.6684 126.004 96.4806 125.772 96.3436 125.51C96.2066 125.249 96.1231 124.962 96.0979 124.668C96.0741 124.517 96.0741 124.364 96.0979 124.213V104.927C96.0994 104.593 96.1944 104.265 96.3719 103.982C96.5495 103.699 96.8027 103.471 97.1029 103.324C97.4667 103.114 97.8793 103.003 98.2993 103.003C98.7194 103.003 99.132 103.114 99.4957 103.324L101.099 104.329L102.319 103.515C102.667 103.19 103.115 102.994 103.59 102.959C104.064 102.924 104.536 103.053 104.928 103.324L105.933 104.329L106.938 103.515C107.249 103.215 107.644 103.015 108.071 102.943C108.498 102.87 108.937 102.928 109.33 103.108C109.669 103.331 109.952 103.628 110.159 103.976C110.367 104.324 110.492 104.715 110.527 105.118V124.429C110.521 125.011 110.287 125.567 109.875 125.979C109.464 126.39 108.907 126.624 108.325 126.63H108.349Z" fill="#FEE856"/>
<path d="M91.2632 83.2237L89.0379 82.8169C87.9543 82.2613 87.1054 81.336 86.645 80.2087L85.8554 78.3901H85.64C84.3962 78.8307 83.0287 78.7619 81.8354 78.1987C81.2574 77.9794 80.7394 77.6267 80.3236 77.1693C79.9077 76.7119 79.6059 76.1627 79.4425 75.5665L75.1832 64.1287C74.9444 63.5474 74.8224 62.9247 74.8242 62.2962C74.8261 61.6677 74.9517 61.0458 75.1939 60.4658C75.4361 59.8859 75.7901 59.3593 76.2358 58.9162C76.6815 58.4731 77.2101 58.1221 77.7914 57.8833L94.8764 51.6619C96.0465 51.2553 97.3196 51.2553 98.4897 51.6619C99.0592 51.8883 99.5703 52.2405 99.9846 52.6921C100.399 53.1437 100.706 53.6832 100.883 54.2701L105.501 65.9233C105.891 67.129 105.818 68.4368 105.295 69.5915C104.773 70.7462 103.84 71.665 102.677 72.1687H102.294L103.084 73.7719C103.33 74.9729 103.264 76.2168 102.893 77.3851C102.666 77.9547 102.314 78.4657 101.862 78.8801C101.411 79.2944 100.871 79.6014 100.284 79.778L93.3211 82.4101L91.2632 83.2237ZM87.4347 73.3651H88.2482C88.5317 73.4489 88.7896 73.6022 88.9986 73.8112C89.2076 74.0202 89.3609 74.2781 89.4447 74.5615L90.9282 78.1987C90.9282 78.3901 91.335 78.5815 91.335 78.3901L98.5136 75.9973V75.2076L97.1018 71.5705C96.9097 71.0362 96.929 70.4487 97.1559 69.9283C97.3828 69.4078 97.8 68.9937 98.3222 68.7708L100.93 67.7658C101.122 67.7658 101.122 67.5505 101.122 67.359L96.9104 55.8973C96.695 55.7058 96.5036 55.4905 96.0968 55.7058L79.3468 61.9273C79.1554 61.9273 78.94 62.334 79.1554 62.5255V62.7408L83.4147 74.1787H83.7497L86.3579 73.1737L87.4347 73.3651Z" fill="#FEE856"/>
<path d="M70.3508 76.9785C69.0376 77.0148 67.7555 76.5761 66.7398 75.743C65.7241 74.9098 65.0432 73.7382 64.822 72.4433C64.6009 71.1484 64.8544 69.8172 65.536 68.6942C66.2175 67.5712 67.2814 66.7318 68.5322 66.3302L77.1944 62.9085C77.7245 62.8162 78.2703 62.9054 78.7436 63.1615C79.2168 63.4177 79.5899 63.8259 79.8026 64.3202L82.1954 70.5417C82.2895 70.7651 82.338 71.0051 82.338 71.2476C82.338 71.49 82.2895 71.73 82.1954 71.9535C82.1001 72.2373 81.9403 72.4952 81.7286 72.707C81.5168 72.9187 81.2589 73.0785 80.9751 73.1738L72.3369 76.787L70.3508 76.9785ZM69.944 70.5417C69.6765 70.6588 69.4547 70.8601 69.3121 71.115C69.1696 71.3698 69.1142 71.6642 69.1544 71.9535C69.2957 72.2459 69.5291 72.4838 69.8187 72.6308C70.1083 72.7777 70.4381 72.8256 70.7576 72.767L77.1944 70.1588L76.3808 67.9335L69.944 70.5417Z" fill="#FEE856"/>
<path d="M101.696 65.5165C101.28 65.4456 100.885 65.2846 100.538 65.0449C100.19 64.8052 99.8999 64.4925 99.6862 64.1286L97.2933 57.8833C97.1874 57.6293 97.1328 57.3569 97.1328 57.0817C97.1328 56.8065 97.1874 56.534 97.2933 56.2801C97.3771 55.9966 97.5304 55.7387 97.7394 55.5297C97.9484 55.3207 98.2063 55.1674 98.4898 55.0836L107.128 52.0686C108.487 51.571 109.987 51.6284 111.303 52.2286C112.62 52.8287 113.647 53.9231 114.163 55.2751C114.429 55.9511 114.549 56.6755 114.516 57.4012C114.483 58.1268 114.298 58.8374 113.972 59.4865C113.275 60.6871 112.221 61.6407 110.957 62.2144L102.51 65.3251L101.696 65.5165ZM102.103 58.3379L103.108 60.5394L109.545 58.1465L110.358 57.3329V56.3279C110.194 56.122 109.97 55.9722 109.717 55.8993C109.464 55.8264 109.195 55.834 108.947 55.9211L102.103 58.3379Z" fill="#FEE856"/>
<path d="M98.4909 100.093H98.1081C97.785 99.9735 97.4916 99.7853 97.2479 99.5416C97.0042 99.298 96.8161 99.0046 96.6963 98.6815L90.2595 81.5965C90.0659 81.0651 90.0818 80.48 90.304 79.96C90.5263 79.44 90.9381 79.0241 91.4559 78.7968L98.8977 76.1886C99.4183 75.9744 100.002 75.9749 100.523 76.1901C101.043 76.4054 101.456 76.8178 101.673 77.3372L108.11 94.4222C108.207 94.7966 108.22 95.1876 108.15 95.5679C108.08 95.9481 107.927 96.3084 107.703 96.6236C107.138 97.1026 106.433 97.3877 105.693 97.4372H102.511L100.31 99.83C99.6874 99.9018 99.0892 100.093 98.4909 100.093ZM95.0691 82.0033L99.6874 93.6565L100.094 92.8668C100.66 92.3879 101.364 92.1027 102.104 92.0533H103.109L98.4909 80.4L95.0691 82.0033Z" fill="#FEE856"/>
<path d="M116.389 94.2787C116.007 94.2637 115.631 94.1712 115.286 94.0066C114.94 93.8421 114.632 93.609 114.379 93.3216C114.096 92.8143 114.02 92.2172 114.167 91.6552C114.314 91.0932 114.673 90.6099 115.169 90.3066L122.611 86.143C123.059 85.9719 123.557 85.9781 124.001 86.1603C124.445 86.3426 124.804 86.6872 125.003 87.1241C125.014 87.2595 125.014 87.3955 125.003 87.5309C125.114 87.9213 125.116 88.3342 125.011 88.726C124.906 89.1177 124.696 89.4737 124.405 89.7562L117.251 94.0634L116.389 94.2787Z" fill="#FEE856"/>
<path d="M126.438 101.314H117.776C117.214 101.239 116.694 100.979 116.295 100.577C115.897 100.174 115.643 99.6506 115.574 99.0884C115.58 98.5065 115.814 97.9501 116.226 97.5386C116.637 97.1271 117.194 96.8932 117.776 96.887H126.438C127.02 96.8932 127.576 97.1271 127.988 97.5386C128.399 97.9501 128.633 98.5065 128.639 99.0884C128.539 99.6377 128.275 100.144 127.882 100.541C127.489 100.938 126.986 101.207 126.438 101.314Z" fill="#FEE856"/>
<path d="M123.424 112.464H122.61L115.168 108.253C114.71 107.93 114.379 107.455 114.235 106.913C114.09 106.37 114.141 105.794 114.379 105.286C114.675 104.823 115.134 104.487 115.666 104.345C116.197 104.204 116.762 104.266 117.25 104.52L124.692 109.138C125.169 109.353 125.543 109.747 125.731 110.236C125.919 110.724 125.907 111.267 125.697 111.747C125.697 111.962 125.505 111.962 125.505 112.153C124.838 112.388 124.131 112.494 123.424 112.464Z" fill="#FEE856"/>
</svg>
