<svg width="231" height="231" viewBox="0 0 231 231" fill="none" xmlns="http://www.w3.org/2000/svg">
<path d="M161.699 115.033C157.518 113.407 153.495 111.4 149.682 109.038C143.907 105.105 140.909 106.728 139.974 107.415C137.616 108.489 135.376 109.807 133.292 111.348C132.977 111.638 132.565 111.799 132.137 111.799C131.709 111.799 131.297 111.638 130.982 111.348C124.739 106.04 123.804 103.098 123.584 101.64L132.604 96.1402C133.155 95.8382 133.569 95.3361 133.759 94.7377C134.199 93.5827 138.599 82.9677 139.259 80.6577C139.507 79.1277 139.507 77.5678 139.259 76.0377C138.915 74.7713 138.162 73.6539 137.118 72.8585C136.074 72.063 134.797 71.634 133.484 71.6377C132.269 71.6389 131.075 71.9596 130.023 72.5678C128.971 73.176 128.097 74.0502 127.489 75.1027L121.989 86.9002L113.217 91.5202C112.942 91.6607 112.699 91.8547 112.5 92.0909C112.302 92.3271 112.153 92.6005 112.062 92.8952C111.899 93.5151 111.978 94.1736 112.282 94.7377C112.366 95.0133 112.505 95.2691 112.69 95.4899C112.875 95.7107 113.103 95.892 113.359 96.0229C113.616 96.1538 113.896 96.2316 114.184 96.2518C114.471 96.272 114.76 96.234 115.032 96.1402C115.279 96.1402 115.279 95.8927 115.499 95.8927L125.207 90.7502L126.362 89.5952L131.669 77.5777C132.138 76.9988 132.787 76.5925 133.512 76.4227C134.447 76.4227 134.447 76.8902 134.447 77.3577C134.667 78.112 134.667 78.9134 134.447 79.6677C134.199 80.8227 131.889 86.8177 129.827 92.3727L120.587 97.8727C120.331 97.9082 120.09 98.0109 119.887 98.1703C119.684 98.3298 119.527 98.5402 119.432 98.7802C118.745 100.483 118.745 102.385 119.432 104.088C121.334 108.402 124.272 112.181 127.984 115.088C129.181 116.085 130.689 116.632 132.247 116.632C133.805 116.632 135.313 116.085 136.509 115.088L142.284 111.843H142.752C144.25 112.03 145.677 112.588 146.904 113.465C151.018 115.945 155.354 118.035 159.857 119.708C160.008 119.941 160.107 120.205 160.145 120.481C160.183 120.756 160.159 121.037 160.077 121.303C159.857 122.458 159.389 122.238 159.169 122.238C156.965 121.52 154.866 120.512 152.927 119.24C145.529 113.933 142.284 114.84 141.129 115.088L130.982 120.395C130.33 120.707 129.745 121.145 129.262 121.683C128.779 122.221 128.407 122.849 128.167 123.531C127.927 124.212 127.824 124.935 127.863 125.657C127.903 126.379 128.084 127.086 128.397 127.738C130.267 130.488 145.502 139.728 145.502 139.728C146.106 140.443 146.437 141.349 146.437 142.285C145.248 142.4 144.052 142.161 142.999 141.598L120.119 126.115C115.946 122.176 112.98 117.13 111.567 111.568C111.458 110.5 111.113 109.469 110.556 108.551C110 107.633 109.246 106.851 108.349 106.26C107.668 105.734 106.872 105.376 106.027 105.213C105.182 105.051 104.31 105.089 103.482 105.325C100.258 105.799 97.3205 107.443 95.232 109.945C95.0818 110.097 94.9632 110.278 94.8829 110.476C94.8027 110.674 94.7624 110.886 94.7645 111.1C94.4962 114.212 94.8134 117.346 95.6995 120.34C95.9702 121.167 96.1184 122.028 96.1395 122.898V124.74H95.232C94.0827 123.212 93.4733 121.345 93.4995 119.433L92.3445 109.505C92.4543 108.507 92.9472 107.59 93.7195 106.948C97.3915 105.385 100.94 103.546 104.334 101.448L117.672 94.9027C117.998 94.8065 118.294 94.6302 118.534 94.3901C118.775 94.1499 118.951 93.8534 119.047 93.5277C119.212 92.9081 119.134 92.2485 118.827 91.6852C118.743 91.4096 118.604 91.1538 118.419 90.933C118.234 90.7122 118.006 90.5309 117.75 90.4C117.493 90.2691 117.213 90.1913 116.925 90.1711C116.638 90.151 116.349 90.1889 116.077 90.2827C115.829 90.2827 115.829 90.5302 115.609 90.5302L101.612 97.7352L91.9045 102.355C90.6404 103.079 89.5903 104.124 88.8609 105.384C88.1316 106.645 87.749 108.076 87.752 109.533L88.907 119.68C89.099 123.033 90.5883 126.179 93.0595 128.453C93.5003 128.811 94.0145 129.069 94.5658 129.206C95.117 129.344 95.6918 129.359 96.2495 129.25C97.079 129.139 97.8763 128.856 98.5911 128.421C99.3058 127.985 99.9225 127.406 100.402 126.72C100.752 126.222 100.977 125.648 101.059 125.045C101.14 124.442 101.075 123.828 100.869 123.255C100.824 121.852 100.668 120.454 100.402 119.075C99.858 116.803 99.5447 114.481 99.467 112.145C100.971 111.019 102.681 110.197 104.499 109.725H105.654C106.562 110.193 106.809 111.568 107.029 112.035C108.452 118.654 111.891 124.668 116.874 129.25L140.442 145.42C142.11 146.411 144.003 146.96 145.942 147.015H147.784C148.433 146.891 149.034 146.589 149.52 146.142C150.005 145.695 150.357 145.121 150.534 144.485C151.179 143.117 151.369 141.578 151.077 140.094C150.785 138.61 150.027 137.258 148.912 136.235C143.488 132.962 138.238 129.409 133.182 125.593L133.649 125.125L142.889 120.285C145.554 120.836 148.045 122.025 150.149 123.75C152.77 125.653 155.757 126.992 158.922 127.683C160.405 127.598 161.814 127.005 162.91 126.003C164.007 125.001 164.726 123.652 164.944 122.183C165.207 121.509 165.334 120.791 165.318 120.068C165.302 119.346 165.144 118.633 164.853 117.972C164.562 117.31 164.143 116.713 163.621 116.213C163.099 115.714 162.483 115.322 161.809 115.06L161.699 115.033Z" fill="#FEE856"/>
<path d="M104.17 91.2451C106.226 91.2451 108.236 90.6354 109.946 89.4932C111.655 88.351 112.987 86.7275 113.774 84.8281C114.561 82.9286 114.767 80.8386 114.366 78.8221C113.965 76.8057 112.975 74.9535 111.521 73.4997C110.067 72.0459 108.215 71.0559 106.198 70.6548C104.182 70.2537 102.092 70.4596 100.192 71.2464C98.293 72.0331 96.6695 73.3655 95.5273 75.0749C94.3851 76.7844 93.7754 78.7941 93.7754 80.8501V81.0701C93.8536 83.7819 94.9807 86.3577 96.9195 88.2554C98.8582 90.1531 101.458 91.2249 104.17 91.2451ZM104.17 75.5426C105.258 75.5426 106.322 75.8652 107.226 76.4695C108.131 77.0738 108.835 77.9328 109.252 78.9378C109.668 79.9428 109.777 81.0487 109.565 82.1156C109.352 83.1825 108.829 84.1625 108.059 84.9317C107.29 85.7009 106.31 86.2247 105.243 86.4369C104.176 86.6491 103.071 86.5402 102.066 86.1239C101.061 85.7076 100.202 85.0027 99.5973 84.0982C98.993 83.1938 98.6704 82.1304 98.6704 81.0426C98.6704 79.5839 99.2499 78.1849 100.281 77.1535C101.313 76.122 102.712 75.5426 104.17 75.5426Z" fill="#FEE856"/>
<path d="M78.0728 140.91L111.348 143.66C111.969 143.618 112.557 143.367 113.016 142.947C113.476 142.528 113.78 141.965 113.878 141.35C113.84 140.67 113.567 140.023 113.105 139.522C112.644 139.02 112.023 138.695 111.348 138.6L78.3478 135.85L76.7253 136.318C76.2092 136.839 75.8148 137.468 75.5703 138.16C75.6586 138.796 75.9825 139.375 76.4778 139.783C76.6026 140.107 76.8207 140.387 77.1045 140.588C77.3884 140.789 77.7253 140.901 78.0728 140.91Z" fill="#FEE856"/>
<path d="M101.75 154.303L68.4752 151.553L66.8802 152.02C66.6071 152.273 66.3883 152.58 66.237 152.92C66.0857 153.26 66.0052 153.628 66.0002 154C65.9152 154.287 65.914 154.592 65.9968 154.88C66.0797 155.167 66.2431 155.425 66.4677 155.623C66.6554 155.886 66.8974 156.105 67.1773 156.267C67.4572 156.428 67.7686 156.527 68.0902 156.558L101.338 159.308C101.92 159.368 102.503 159.21 102.976 158.864C103.448 158.519 103.776 158.011 103.895 157.438V157.218C103.99 156.587 103.833 155.945 103.457 155.43C103.081 154.915 102.517 154.569 101.888 154.468L101.75 154.303Z" fill="#FEE856"/>
<path d="M138.82 149.215L85.2498 144.595C84.9256 144.49 84.5783 144.477 84.2476 144.56C83.9168 144.643 83.6161 144.817 83.3798 145.063C83.0067 145.362 82.7286 145.764 82.579 146.218C82.4295 146.673 82.4149 147.161 82.5372 147.624C82.6594 148.087 82.9131 148.504 83.2677 148.825C83.6222 149.147 84.0623 149.359 84.5348 149.435L138.38 154C139.001 153.958 139.589 153.707 140.048 153.287C140.508 152.868 140.812 152.305 140.91 151.69C140.99 151.383 140.996 151.061 140.926 150.751C140.856 150.441 140.712 150.153 140.507 149.91C140.302 149.667 140.042 149.477 139.748 149.356C139.455 149.235 139.136 149.187 138.82 149.215Z" fill="#FEE856"/>
</svg>
