<svg width="193" height="193" viewBox="0 0 193 193" fill="none" xmlns="http://www.w3.org/2000/svg">
<path d="M53.2589 96.8906C51.6693 96.9849 50.1069 96.4455 48.9141 95.3905C47.7213 94.3354 46.9951 92.8507 46.8945 91.2614V80.2788C46.9183 78.5982 47.5965 76.9932 48.7849 75.8047C49.9733 74.6163 51.5784 73.9381 53.2589 73.9144H58.2907C59.9428 73.9736 61.5081 74.6688 62.6598 75.8547C63.8115 77.0406 64.4605 78.6257 64.4713 80.2788V90.71C64.4958 91.4976 64.3649 92.2823 64.0859 93.0192C63.807 93.7562 63.3856 94.431 62.8457 95.005C62.3059 95.579 61.6582 96.0409 60.9397 96.3645C60.2212 96.688 59.446 96.8668 58.6583 96.8906H53.2589ZM53.2589 78.119C53.0024 78.0728 52.7392 78.0778 52.4846 78.1337C52.2299 78.1896 51.9889 78.2954 51.7753 78.4449C51.5617 78.5944 51.3799 78.7847 51.2402 79.0048C51.1005 79.2249 51.0057 79.4705 50.9613 79.7274C50.9506 79.7727 50.9506 79.8199 50.9613 79.8652V90.664C50.9673 91.2228 51.1919 91.757 51.587 92.1521C51.9822 92.5472 52.5164 92.7719 53.0751 92.7778H58.2907C58.8495 92.7719 59.3837 92.5472 59.7788 92.1521C60.1739 91.757 60.3986 91.2228 60.4045 90.664V80.2788C60.4651 79.7482 60.3203 79.2145 59.9998 78.7873C59.6794 78.36 59.2076 78.0716 58.6813 77.9812H53.2589V78.119Z" fill="#FEE856"/>
<path d="M79.5207 145.141H73.3401C71.5357 145.141 69.803 144.434 68.5142 143.171C67.2255 141.908 66.4834 140.19 66.4473 138.386V130.666C66.5136 130.126 66.7571 129.623 67.1396 129.236C67.5221 128.85 68.022 128.601 68.5611 128.529C69.1238 128.535 69.6614 128.763 70.0572 129.163C70.4529 129.563 70.6749 130.103 70.6749 130.666V138.386C70.7648 139.053 71.0847 139.669 71.5796 140.126C72.0745 140.583 72.7134 140.853 73.3861 140.89H79.5667C80.2272 140.878 80.8574 140.61 81.3245 140.143C81.7916 139.676 82.0593 139.046 82.0711 138.386V130.666C82.0233 130.107 82.1968 129.552 82.5542 129.121C82.9116 128.689 83.4243 128.415 83.9818 128.358C84.5393 128.301 85.0969 128.465 85.5346 128.815C85.9723 129.165 86.2549 129.673 86.3217 130.229C86.3445 130.374 86.3445 130.521 86.3217 130.666V138.386C86.2861 140.174 85.5567 141.878 84.2876 143.139C83.0186 144.399 81.3092 145.117 79.5207 145.141Z" fill="#FEE856"/>
<path d="M71.4109 121.774C70.9583 121.777 70.5095 121.691 70.0902 121.52C69.6709 121.35 69.2893 121.099 68.9671 120.781C68.645 120.463 68.3886 120.084 68.2126 119.667C68.0366 119.25 67.9445 118.803 67.9415 118.35V109.619C67.9385 109.167 68.0246 108.718 68.195 108.299C68.3654 107.879 68.6168 107.498 68.9347 107.176C69.2526 106.853 69.6308 106.597 70.0478 106.421C70.4648 106.245 70.9123 106.153 71.3649 106.15H82.2097C83.128 106.15 84.0094 106.512 84.6631 107.157C85.3167 107.802 85.69 108.678 85.7021 109.596V118.281C85.7021 119.204 85.3373 120.089 84.6873 120.743C84.0373 121.397 83.1549 121.768 82.2327 121.774H71.4109ZM72.1921 117.73H81.6353V110.401H72.1921V117.73Z" fill="#FEE856"/>
<path d="M90.5255 132.779C89.9627 132.779 89.4227 132.557 89.0226 132.162C88.6225 131.766 88.3947 131.228 88.3887 130.666V108.654C88.3947 108.092 88.6225 107.554 89.0226 107.158C89.4227 106.762 89.9627 106.54 90.5255 106.541H96.6831C96.9647 106.507 97.2503 106.529 97.5231 106.607C97.7959 106.685 98.0505 106.816 98.272 106.993C98.4935 107.17 98.6776 107.39 98.8134 107.639C98.9492 107.888 99.0341 108.162 99.0631 108.444C99.0921 108.726 99.0646 109.011 98.9822 109.283C98.8999 109.554 98.7643 109.806 98.5834 110.025C98.4025 110.243 98.1799 110.424 97.9286 110.555C97.6772 110.687 97.4023 110.767 97.1196 110.791H92.5244V130.964C92.451 131.451 92.2121 131.897 91.8479 132.228C91.4838 132.558 91.0167 132.753 90.5255 132.779Z" fill="#FEE856"/>
<path d="M130.459 132.779H62.5411C61.9783 132.779 61.4383 132.557 61.0382 132.162C60.6381 131.766 60.4103 131.228 60.4043 130.666V49.7893C60.4103 49.2266 60.6381 48.689 61.0382 48.2932C61.4383 47.8975 61.9783 47.6755 62.5411 47.6755H130.459C131.021 47.6755 131.562 47.8975 131.962 48.2932C132.362 48.689 132.589 49.2266 132.595 49.7893V130.666C132.589 131.228 132.362 131.766 131.962 132.162C131.562 132.557 131.021 132.779 130.459 132.779ZM128.345 128.667V51.9261H64.6549V128.667H128.345Z" fill="#FEE856"/>
<path d="M134.709 96.8906C133.906 96.8997 133.109 96.7506 132.364 96.4518C131.619 96.1531 130.941 95.7105 130.367 95.1494C129.793 94.5882 129.335 93.9195 129.02 93.1815C128.704 92.4434 128.537 91.6504 128.528 90.8478V80.2788C128.516 79.455 128.666 78.637 128.97 77.8713C129.274 77.1056 129.726 76.4073 130.3 75.8163C130.874 75.2253 131.559 74.7532 132.315 74.4268C133.072 74.1005 133.885 73.9263 134.709 73.9144H139.74C141.421 73.9381 143.026 74.6163 144.214 75.8047C145.403 76.9932 146.081 78.5982 146.105 80.2788V90.71C146.123 92.3153 145.51 93.8635 144.396 95.02C143.283 96.1765 141.759 96.8484 140.154 96.8906H134.709ZM134.709 78.119C134.15 78.125 133.616 78.3496 133.221 78.7447C132.825 79.1399 132.601 79.6741 132.595 80.2328V90.664C132.601 91.2228 132.825 91.757 133.221 92.1521C133.616 92.5472 134.15 92.7719 134.709 92.7778H139.74C140.271 92.8384 140.805 92.6936 141.232 92.3731C141.659 92.0527 141.948 91.5809 142.038 91.0546V80.4166C142.087 80.1598 142.085 79.8956 142.03 79.6397C141.976 79.3839 141.87 79.1417 141.72 78.9274C141.57 78.7131 141.379 78.5311 141.157 78.3922C140.935 78.2534 140.688 78.1605 140.43 78.119H134.709Z" fill="#FEE856"/>
<path d="M119.66 145.141H113.479C112.595 145.144 111.719 144.972 110.901 144.637C110.083 144.301 109.339 143.808 108.712 143.185C108.085 142.562 107.587 141.822 107.245 141.006C106.904 140.19 106.727 139.316 106.724 138.432V130.666C106.69 130.384 106.713 130.098 106.791 129.826C106.869 129.553 107 129.298 107.177 129.077C107.354 128.855 107.574 128.671 107.823 128.535C108.072 128.399 108.345 128.315 108.627 128.286C108.91 128.257 109.195 128.284 109.466 128.366C109.738 128.449 109.99 128.584 110.208 128.765C110.427 128.946 110.607 129.169 110.739 129.42C110.87 129.671 110.951 129.946 110.975 130.229C110.998 130.374 110.998 130.521 110.975 130.666V138.386C110.987 139.046 111.254 139.676 111.721 140.143C112.188 140.611 112.819 140.878 113.479 140.89H119.66C120.343 140.887 121 140.628 121.502 140.164C122.003 139.701 122.314 139.066 122.371 138.386V130.666C122.371 130.103 122.593 129.563 122.989 129.163C123.384 128.763 123.922 128.535 124.485 128.529C125.024 128.601 125.524 128.85 125.906 129.237C126.289 129.623 126.532 130.126 126.599 130.666V138.386C126.562 140.198 125.814 141.923 124.515 143.187C123.217 144.451 121.472 145.153 119.66 145.141Z" fill="#FEE856"/>
<path d="M110.791 121.774C109.873 121.774 108.991 121.412 108.338 120.767C107.684 120.122 107.311 119.246 107.299 118.327V109.619C107.305 108.701 107.672 107.822 108.322 107.173C108.971 106.523 109.85 106.156 110.768 106.15H121.59C122.043 106.147 122.491 106.233 122.911 106.403C123.33 106.574 123.712 106.825 124.034 107.143C124.356 107.461 124.612 107.839 124.788 108.256C124.964 108.673 125.056 109.121 125.059 109.573V118.304C125.062 118.757 124.976 119.206 124.806 119.625C124.635 120.044 124.384 120.426 124.066 120.748C123.748 121.07 123.37 121.327 122.953 121.503C122.536 121.679 122.089 121.771 121.636 121.774H110.791ZM111.366 117.73H120.809V110.401H111.366V117.73Z" fill="#FEE856"/>
<path d="M130.459 92.8237C130.015 92.8293 129.58 92.7064 129.205 92.4699C128.83 92.2335 128.531 91.8935 128.345 91.4911L120.441 67.5499L118.304 65.4361H74.6494L72.5126 67.5499L64.4709 91.4911C64.2251 91.9698 63.819 92.347 63.3236 92.5569C62.8281 92.7669 62.2747 92.7962 61.7598 92.6399C61.5409 92.5813 61.3357 92.4801 61.156 92.3421C60.9763 92.204 60.8256 92.0319 60.7125 91.8356C60.5994 91.6393 60.5261 91.4225 60.4968 91.1978C60.4676 90.9731 60.4829 90.7449 60.542 90.5261V90.1585L68.9283 66.0105C68.9266 65.8319 68.9603 65.6547 69.0273 65.489C69.0943 65.3234 69.1934 65.1727 69.3189 65.0455L72.2139 62.1505C72.606 61.6999 73.1582 61.4197 73.7533 61.3693H118.695C118.997 61.3572 119.297 61.4227 119.566 61.5594C119.836 61.6962 120.066 61.8997 120.234 62.1505L123.129 65.0455C123.255 65.1727 123.354 65.3234 123.421 65.489C123.488 65.6547 123.521 65.8319 123.52 66.0105L131.814 90.1355C132.002 90.5849 132.019 91.0873 131.862 91.5484C131.706 92.0096 131.386 92.3977 130.964 92.6399H130.78L130.459 92.8237Z" fill="#FEE856"/>
<path d="M122.946 95.3512H70.1011C69.7801 95.3497 69.4659 95.2585 69.1939 95.088C68.9219 94.9175 68.7029 94.6744 68.5617 94.3862C68.3576 94.1135 68.2167 93.7989 68.1492 93.4651C68.0816 93.1313 68.0891 92.7867 68.1711 92.4562L75.3167 70.2612C75.442 69.8637 75.694 69.5182 76.0343 69.2775C76.3745 69.0369 76.7842 68.9143 77.2007 68.9285H115.801C116.215 68.959 116.613 69.1011 116.953 69.3398C117.293 69.5785 117.562 69.9049 117.731 70.2841L125.06 92.663C125.127 93.331 124.991 94.0037 124.67 94.5929C124.199 95.0352 123.591 95.3028 122.946 95.3512ZM120.051 91.2844L114.055 73.1562H78.7402L72.7663 91.2844H120.051Z" fill="#FEE856"/>
<path d="M102.475 132.779C101.916 132.773 101.382 132.549 100.987 132.154C100.591 131.758 100.367 131.224 100.361 130.666V110.791H96.317C95.7586 110.839 95.2038 110.665 94.7721 110.308C94.3405 109.951 94.0665 109.438 94.0092 108.88C93.952 108.323 94.116 107.765 94.466 107.328C94.816 106.89 95.324 106.607 95.8804 106.541H102.475C103.037 106.54 103.577 106.762 103.977 107.158C104.378 107.554 104.605 108.092 104.611 108.654V130.666C104.605 131.228 104.378 131.766 103.977 132.162C103.577 132.557 103.037 132.779 102.475 132.779Z" fill="#FEE856"/>
<path d="M102.474 121.774H90.5259C89.9653 121.774 89.4276 121.551 89.0312 121.155C88.6348 120.758 88.4121 120.221 88.4121 119.66C88.4121 119.099 88.6348 118.562 89.0312 118.165C89.4276 117.769 89.9653 117.546 90.5259 117.546H102.474C103.034 117.546 103.572 117.769 103.968 118.165C104.365 118.562 104.587 119.099 104.587 119.66C104.587 120.221 104.365 120.758 103.968 121.155C103.572 121.551 103.034 121.774 102.474 121.774Z" fill="#FEE856"/>
</svg>
