<svg width="215" height="215" viewBox="0 0 215 215" fill="none" xmlns="http://www.w3.org/2000/svg">
<path d="M91.3743 62.35L90.9392 61.275C89.732 58.7187 89.0779 55.9365 89.0195 53.1101C89.0195 48.209 90.9665 43.5086 94.4321 40.043C97.8978 36.5773 102.598 34.6304 107.499 34.6304C112.4 34.6304 117.101 36.5773 120.566 40.043C124.032 43.5086 125.979 48.209 125.979 53.1101C125.951 55.9181 125.368 58.6929 124.264 61.275L123.829 62.1453L111.031 83.85C110.695 84.5831 110.148 85.1991 109.459 85.6187C108.771 86.0383 107.972 86.2424 107.167 86.2048C106.392 86.2183 105.631 86.0018 104.979 85.5827C104.328 85.1635 103.815 84.5605 103.506 83.85L91.4511 62.5548L91.3743 62.35ZM95.2392 59.5601L107.295 81.2649L119.529 59.5601C120.418 57.9325 120.973 56.1436 121.161 54.2986C121.349 52.4535 121.167 50.5895 120.625 48.8159C120.083 47.0422 119.192 45.3948 118.004 43.9702C116.817 42.5456 115.357 41.3727 113.71 40.5202C112.063 39.6676 110.262 39.1528 108.413 39.0057C106.564 38.8587 104.705 39.0825 102.944 39.664C101.182 40.2455 99.5553 41.173 98.1575 42.3919C96.7598 43.6109 95.6197 45.0969 94.8041 46.7625C93.7802 48.6819 93.2689 50.833 93.3195 53.0077C93.3529 53.95 93.4902 54.8856 93.7291 55.7976C93.8598 57.171 94.3842 58.4775 95.2392 59.5601Z" fill="#FEE856"/>
<path d="M78.0389 166.369H76.3241C73.9909 166.295 71.7804 165.306 70.171 163.615C68.5616 161.924 67.6825 159.668 67.7241 157.334V141.465C67.785 140.879 68.0607 140.337 68.498 139.943C68.9352 139.549 69.503 139.331 70.0916 139.331C70.6803 139.331 71.248 139.549 71.6853 139.943C72.1225 140.337 72.3982 140.879 72.4592 141.465V157.385C72.4386 157.93 72.5257 158.473 72.7153 158.984C72.9049 159.495 73.1933 159.964 73.5642 160.363C73.935 160.762 74.381 161.085 74.8765 161.311C75.372 161.538 75.9074 161.665 76.452 161.685H78.2693C79.3587 161.597 80.3771 161.109 81.1284 160.315C81.8797 159.521 82.3109 158.478 82.3389 157.385V153.571C82.2755 153.261 82.2749 152.94 82.337 152.629C82.3992 152.318 82.5228 152.023 82.7008 151.76C82.8787 151.498 83.1073 151.273 83.3731 151.1C83.639 150.928 83.9367 150.809 84.2488 150.753C84.561 150.697 84.8812 150.703 85.1907 150.773C85.5002 150.842 85.7928 150.972 86.0512 151.156C86.3097 151.34 86.5287 151.574 86.6956 151.843C86.8624 152.113 86.9737 152.413 87.0229 152.727C87.0743 153.006 87.0743 153.292 87.0229 153.571V157.436C86.9158 159.78 85.9334 161.998 84.2699 163.652C82.6064 165.306 80.3829 166.275 78.0389 166.369Z" fill="#FEE856"/>
<path d="M138.675 166.369H136.96C134.627 166.295 132.417 165.306 130.807 163.615C129.198 161.924 128.319 159.668 128.36 157.334V153.571C128.307 152.949 128.5 152.331 128.898 151.851C129.297 151.37 129.868 151.064 130.489 151.001C131.11 150.937 131.731 151.12 132.219 151.51C132.706 151.899 133.021 152.465 133.095 153.085C133.121 153.246 133.121 153.41 133.095 153.571V157.436C133.075 157.981 133.162 158.524 133.351 159.035C133.541 159.546 133.83 160.015 134.2 160.414C134.571 160.813 135.017 161.136 135.513 161.363C136.008 161.59 136.544 161.717 137.088 161.736H138.88C139.976 161.66 141.004 161.176 141.762 160.381C142.519 159.585 142.952 158.535 142.975 157.436V138.035C142.922 137.413 143.115 136.795 143.513 136.314C143.911 135.833 144.483 135.528 145.104 135.464C145.725 135.401 146.346 135.583 146.833 135.973C147.321 136.363 147.636 136.929 147.71 137.549C147.736 137.71 147.736 137.874 147.71 138.035V157.385C147.603 159.742 146.615 161.973 144.942 163.637C143.269 165.3 141.033 166.275 138.675 166.369Z" fill="#FEE856"/>
<path d="M140.62 116.535C140.16 116.145 139.567 115.949 138.966 115.987C138.365 116.025 137.802 116.295 137.395 116.74C136.999 117.197 136.799 117.791 136.837 118.394C136.875 118.998 137.149 119.562 137.6 119.965C139.867 121.879 141.58 124.364 142.561 127.164C143.542 129.964 143.756 132.975 143.179 135.885H132.225C130.715 135.885 130.51 135.45 130.51 135.45C129.87 133.804 129.87 131.977 130.51 130.331H139.75C140.374 130.331 140.973 130.083 141.415 129.641C141.856 129.2 142.104 128.601 142.104 127.976C142.104 127.352 141.856 126.753 141.415 126.311C140.973 125.87 140.374 125.621 139.75 125.621H128.795C128.336 125.653 127.894 125.808 127.516 126.069C127.138 126.33 126.837 126.688 126.645 127.106C126.21 128.181 123.829 133.991 126.414 137.856C127.055 138.724 127.905 139.414 128.886 139.862C129.866 140.309 130.945 140.5 132.02 140.416H141.9C140.718 144.075 139.21 147.622 137.395 151.012H77.6044C75.6759 147.695 74.1629 144.153 73.0996 140.467H82.9794C84.0542 140.551 85.1328 140.361 86.1135 139.913C87.0942 139.465 87.9447 138.775 88.5847 137.907C91.1443 134.042 88.7895 128.232 88.3544 127.157C88.2126 126.706 87.9241 126.314 87.5346 126.045C87.1451 125.776 86.6769 125.645 86.2044 125.673H75.2496C74.6251 125.673 74.0261 125.921 73.5845 126.362C73.1429 126.804 72.8949 127.403 72.8949 128.027C72.8949 128.652 73.1429 129.251 73.5845 129.693C74.0261 130.134 74.6251 130.382 75.2496 130.382H84.7198C85.3598 132.029 85.3598 133.855 84.7198 135.501C84.7198 135.501 84.4895 135.936 82.9794 135.936H72.0246C71.5895 130.331 72.2294 124.316 77.6044 120.016C77.8552 119.834 78.0664 119.604 78.225 119.338C78.3836 119.072 78.4863 118.776 78.5268 118.469C78.5673 118.162 78.5448 117.85 78.4606 117.552C78.3764 117.254 78.2323 116.976 78.0372 116.736C77.842 116.495 77.5998 116.297 77.3255 116.153C77.0511 116.009 76.7504 115.923 76.4416 115.9C76.1328 115.876 75.8224 115.916 75.5294 116.016C75.2365 116.117 74.9671 116.276 74.7377 116.484H74.6097C71.5913 119.131 69.3681 122.565 68.1884 126.402C67.0087 130.239 66.919 134.329 67.9294 138.214C68.1597 145.893 74.3794 154.135 74.6097 154.57C75.0614 155.048 75.6701 155.348 76.3246 155.414H138.675C139.009 155.431 139.341 155.362 139.641 155.214C139.941 155.066 140.199 154.844 140.389 154.57C140.62 154.135 146.84 145.97 147.07 138.214C148.109 134.358 148.056 130.289 146.917 126.461C145.779 122.632 143.598 119.196 140.62 116.535Z" fill="#FEE856"/>
<path d="M119.325 135.45H95.6749C95.0894 135.389 94.5473 135.113 94.1532 134.676C93.7591 134.239 93.541 133.671 93.541 133.082C93.541 132.494 93.7591 131.926 94.1532 131.489C94.5473 131.052 95.0894 130.776 95.6749 130.715H119.325C119.952 130.722 120.551 130.975 120.992 131.421C121.432 131.867 121.68 132.468 121.68 133.095C121.633 133.704 121.369 134.276 120.938 134.708C120.506 135.14 119.934 135.403 119.325 135.45Z" fill="#FEE856"/>
<path d="M116.741 142.54H98.261C97.639 142.593 97.0209 142.4 96.5401 142.002C96.0592 141.603 95.754 141.032 95.6902 140.411C95.6264 139.79 95.8092 139.169 96.1991 138.681C96.589 138.194 97.1548 137.879 97.7747 137.805C97.9358 137.779 98.0999 137.779 98.261 137.805H116.741C117.055 137.767 117.373 137.792 117.677 137.879C117.98 137.965 118.264 138.112 118.511 138.309C118.758 138.506 118.963 138.751 119.114 139.028C119.265 139.306 119.36 139.611 119.392 139.925C119.424 140.239 119.394 140.557 119.302 140.859C119.21 141.162 119.059 141.443 118.858 141.686C118.656 141.93 118.408 142.13 118.128 142.277C117.848 142.424 117.542 142.513 117.227 142.54C117.066 142.565 116.902 142.565 116.741 142.54Z" fill="#FEE856"/>
<path d="M141.9 107.065H136.781L132.225 92.1429C132.054 91.6515 131.736 91.2241 131.315 90.9178C130.895 90.6114 130.391 90.4405 129.87 90.428H85.1299C84.6343 90.5201 84.1656 90.7219 83.7582 91.0186C83.3507 91.3153 83.0148 91.6995 82.7751 92.1429L78.2703 107.193H73.1513C71.4381 107.159 69.7812 107.805 68.5434 108.99C67.3056 110.175 66.588 111.802 66.5477 113.515C66.5202 115.19 67.1559 116.808 68.3161 118.016C69.4764 119.224 71.0672 119.925 72.7418 119.965H141.849C143.407 119.767 144.839 119.009 145.877 117.831C146.915 116.653 147.488 115.136 147.488 113.566C147.488 111.996 146.915 110.48 145.877 109.302C144.839 108.124 143.407 107.365 141.849 107.167L141.9 107.065ZM141.9 115.23H73.1001C72.654 115.23 72.2254 115.056 71.9053 114.746C71.5851 114.435 71.3985 114.012 71.3852 113.566C71.4098 113.119 71.5983 112.697 71.9148 112.381C72.2312 112.064 72.6533 111.876 73.1001 111.851H79.7549C80.267 111.798 80.7562 111.612 81.1739 111.311C81.5916 111.011 81.9231 110.605 82.1352 110.136L86.64 95.0863H127.976L132.865 110.06C133.013 110.57 133.328 111.016 133.76 111.327C134.191 111.638 134.714 111.795 135.245 111.774H141.9C142.346 111.774 142.775 111.948 143.095 112.258C143.415 112.569 143.602 112.992 143.615 113.438C143.59 113.882 143.4 114.301 143.083 114.614C142.767 114.926 142.345 115.109 141.9 115.127V115.23Z" fill="#FEE856"/>
<path d="M107.296 64.7048C106.048 64.7597 104.803 64.5682 103.629 64.1411C102.456 63.714 101.379 63.0597 100.459 62.2158C99.5387 61.3718 98.7941 60.3547 98.2676 59.2227C97.7411 58.0906 97.443 56.8658 97.3904 55.6185V54.825C97.3416 52.1916 98.3276 49.6441 100.137 47.7297C101.946 45.8154 104.433 44.687 107.065 44.5869H107.296C110.011 44.5869 112.615 45.6656 114.535 47.5856C116.455 49.5056 117.534 52.1097 117.534 54.825C117.534 57.4453 116.493 59.9582 114.64 61.8111C112.787 63.6639 110.274 64.7048 107.654 64.7048H107.296ZM107.296 49.3476C105.908 49.3267 104.567 49.8513 103.562 50.8086C102.557 51.7659 101.968 53.0794 101.921 54.4667V54.825C101.9 56.2129 102.424 57.5536 103.382 58.5587C104.339 59.5639 105.653 60.1532 107.04 60.2H107.193C108.544 60.3209 109.887 59.901 110.929 59.0324C111.97 58.1639 112.624 56.9176 112.748 55.5673C112.76 55.4054 112.76 55.2428 112.748 55.081V54.8762C112.77 53.4416 112.236 52.0542 111.258 51.0045C110.279 49.9549 108.933 49.3244 107.501 49.2452H107.296V49.3476Z" fill="#FEE856"/>
</svg>
